<?xml version="1.0" encoding="utf-8"?>
<!-- Generator: Adobe Illustrator 16.0.0, SVG Export Plug-In . SVG Version: 6.00 Build 0)  -->
<!DOCTYPE svg PUBLIC "-//W3C//DTD SVG 1.1//EN" "http://www.w3.org/Graphics/SVG/1.1/DTD/svg11.dtd">
<svg version="1.1" id="Capa_1" xmlns="http://www.w3.org/2000/svg" xmlns:xlink="http://www.w3.org/1999/xlink" x="0px" y="0px"
	 width="595.281px" height="841.891px" viewBox="0 0 595.281 841.891" enable-background="new 0 0 595.281 841.891"
	 xml:space="preserve">
<path fill="#9A9A9A" d="M345.937,145.104c-6.904-3.294-15.041-2.421-20.994,2.381L131.914,301.9H39.686
	C17.819,301.9,0,319.719,0,341.585v158.742c0,21.906,17.819,39.686,39.686,39.686h92.229l192.99,154.415
	c3.611,2.857,8.018,4.326,12.422,4.326c2.938,0,5.873-0.675,8.611-1.984c6.865-3.294,11.23-10.239,11.23-17.858v-515.91
	C357.167,155.382,352.802,148.437,345.937,145.104z"/>
<path fill="#9A9A9A" d="M457.613,280.629c-7.818-7.699-20.359-7.58-28.059,0.159c-7.699,7.818-7.619,20.358,0.158,28.097
	c30.002,29.605,46.512,69.41,46.512,112.071c0,42.662-16.51,82.467-46.512,112.071c-7.777,7.659-7.857,20.24-0.158,28.058
	c3.889,3.929,9.008,5.874,14.088,5.874c5.041,0,10.08-1.905,13.971-5.755c37.621-37.026,58.297-86.871,58.297-140.248
	C515.91,367.58,495.234,317.734,457.613,280.629L457.613,280.629z"/>
<path fill="#9A9A9A" d="M513.607,224.712c-7.816-7.738-20.357-7.659-28.096,0.119c-7.699,7.778-7.621,20.359,0.119,28.058
	c45.121,44.726,69.965,104.412,69.965,168.067s-24.844,123.303-69.965,168.028c-7.74,7.738-7.818,20.318-0.119,28.097
	c3.928,3.89,9.008,5.834,14.088,5.834c5.039,0,10.119-1.905,14.008-5.755c52.703-52.186,81.674-121.873,81.674-196.204
	C595.281,346.625,566.31,276.938,513.607,224.712L513.607,224.712z"/>
</svg>
