<?xml version="1.0" encoding="utf-8"?>
<!-- Generator: Adobe Illustrator 16.0.0, SVG Export Plug-In . SVG Version: 6.00 Build 0)  -->
<!DOCTYPE svg PUBLIC "-//W3C//DTD SVG 1.1//EN" "http://www.w3.org/Graphics/SVG/1.1/DTD/svg11.dtd">
<svg version="1.1" id="Layer_1" xmlns:svgjs="http://svgjs.com/svgjs"
	 xmlns="http://www.w3.org/2000/svg" xmlns:xlink="http://www.w3.org/1999/xlink" x="0px" y="0px" width="187.047px" height="77px"
	 viewBox="-353.064 188.5 187.047 77" enable-background="new -353.064 188.5 187.047 77" xml:space="preserve">
<g>
	<path fill="#646464" d="M-329.265,227.509l66.437,16.993c2.349,0.606,6.173,0.61,8.542,0.009c0.012-0.002,0.023-0.005,0.035-0.009
		l66.437-16.993c2.341-0.603,2.341-1.576,0-2.179c-2.349-0.606-6.173-0.61-8.542-0.009c-0.011,0.002-0.022,0.005-0.034,0.009
		l-62.148,15.897l-62.147-15.897c-2.35-0.606-6.174-0.61-8.542-0.009c-0.012,0.002-0.023,0.005-0.035,0.009
		C-331.607,225.933-331.607,226.907-329.265,227.509z"/>
	<path fill="#646464" d="M-262.829,230.212c2.349,0.605,6.173,0.61,8.542,0.009c0.012-0.003,0.023-0.006,0.035-0.009l66.437-16.994
		c2.341-0.603,2.341-1.576,0-2.179c-2.349-0.605-6.173-0.61-8.542-0.009c-0.011,0.002-0.022,0.006-0.034,0.009l-62.148,15.898
		l-62.147-15.898c-2.35-0.605-6.174-0.61-8.542-0.009c-0.012,0.002-0.023,0.006-0.035,0.009c-2.342,0.603-2.342,1.576,0,2.179
		L-262.829,230.212z"/>
</g>
</svg>
