<svg id="Capa_1" enable-background="new 0 0 512 512" height="512" viewBox="0 0 512 512" width="512" xmlns="http://www.w3.org/2000/svg"><g><path d="m256 0c-141.387 0-256 114.613-256 256s114.613 256 256 256 256-114.613 256-256-114.613-256-256-256zm-162.461 356.87c-2.571-4.141-4.998-8.395-7.248-12.742-12.886-24.73-20.517-52.578-21.425-82.139-3.335-108.18 84.7-198.198 192.922-197.207 31.131.279 60.476 8.013 86.373 21.477 4.347 2.261 8.591 4.688 12.731 7.269 1.879 1.167 2.189 3.779.63 5.338l-258.635 258.634c-1.559 1.559-4.171 1.249-5.348-.63zm162.461 90.358c-31.792 0-61.767-7.765-88.128-21.487-4.347-2.261-8.611-4.688-12.752-7.259-1.89-1.177-2.199-3.789-.64-5.349l258.653-258.653c1.559-1.559 4.172-1.249 5.349.64 2.571 4.141 4.997 8.405 7.259 12.752 13.723 26.392 21.487 56.336 21.487 88.128 0 105.609-85.588 191.228-191.228 191.228z" fill="#e94444"/><path d="m402.426 45.99c56.243 46.95 92.021 117.587 92.021 196.587 0 141.387-114.613 256-256 256-54.446 0-104.938-17.006-146.426-45.99 44.41 37.1 101.592 59.413 163.979 59.413 141.387 0 256-114.613 256-256 0-86.93-43.326-163.742-109.574-210.01z" fill="#d83131"/></g></svg>