<svg xmlns="http://www.w3.org/2000/svg" version="1.1" xmlns:xlink="http://www.w3.org/1999/xlink" xmlns:svgjs="http://svgjs.com/svgjs" width="512" height="512" x="0" y="0" viewBox="0 0 264.695 264.695" style="enable-background:new 0 0 512 512" xml:space="preserve" class=""><g><path d="M219.171 216.785c-4.762 0-10.322 2.3-16.672 6.881l-35.211-12.968 35.734-12.978c6.003 3.888 11.558 5.833 16.682 5.833 5.639 0 9.347-2.917 11.117-8.733.351-1.235.527-2.57.527-3.981 0-7.397-4.766-11.378-14.295-11.9 3.876-3.882 5.828-7.687 5.828-11.392 0-3.871-2.039-7.149-6.092-9.797-2.118-1.049-4.325-1.584-6.615-1.584-7.769 0-13.064 6.258-15.887 18.797l-61.941 23.039-61.94-22.504c-2.823-12.885-8.125-19.332-15.885-19.332-2.293 0-4.501.535-6.62 1.584-3.876 2.647-5.82 5.926-5.82 9.797 0 3.705 1.944 7.51 5.82 11.392-9.701.522-14.555 4.503-14.555 11.901 0 1.41.179 2.746.526 3.98 1.946 5.816 5.651 8.733 11.122 8.733 5.113 0 10.671-1.945 16.677-5.832l35.998 12.977-35.476 12.698c-6.175-4.406-11.637-6.611-16.402-6.611-5.654 0-9.623 2.918-11.919 8.733a14.562 14.562 0 0 0-.526 3.975c0 7.405 4.853 11.385 14.555 11.907-3.876 3.883-5.82 7.688-5.82 11.393 0 3.869 1.944 7.134 5.82 9.797 2.477 1.412 4.854 2.105 7.153 2.105 7.227 0 12.443-6.176 15.619-18.525l61.673-22.504 61.678 22.504c3.178 12.35 8.475 18.525 15.882 18.525 2.121 0 4.407-.693 6.884-2.105 4.052-2.663 6.092-5.928 6.092-9.797 0-3.705-1.953-7.51-5.828-11.393 9.528-.522 14.295-4.502 14.295-11.907 0-1.422-.177-2.739-.527-3.975-2.12-5.816-6.002-8.733-11.651-8.733z" style="" fill="#ffffff" data-original="#030104" class=""></path><path d="M48.436 128.904c9.703 11.114 23.379 19.242 41.035 24.346v3.986c0 4.936 1.672 9.086 5.025 12.433 3.35 3.358 7.498 5.211 12.441 5.563 5.116.357 8.905-.528 11.378-2.646 3.879 2.817 8.204 4.229 12.974 4.229 4.41 0 8.474-1.316 12.175-3.963 2.471 1.934 6.087 2.738 10.856 2.381 4.937-.528 9.089-2.426 12.44-5.689 3.35-3.281 5.025-7.371 5.025-12.307v-2.91c19.057-4.945 33.795-13.237 44.21-24.898 10.059-11.109 15.087-24.253 15.087-39.435 0-3.359-.355-6.886-1.063-10.597-3.525-22.571-13.938-41.201-31.229-55.844C180.612 7.856 158.464 0 132.347 0c-26.123 0-48.27 7.767-66.44 23.282-17.297 14.836-27.618 33.543-30.97 56.114-.709 3.711-1.064 7.238-1.064 10.597 0 14.824 4.851 27.785 14.563 38.911zm104.429-68.155c5.206-6.085 11.514-9.13 18.922-9.13 7.592 0 13.986 3.045 19.194 9.13 5.2 6.076 7.81 13.446 7.81 22.087 0 8.649-2.609 16.021-7.81 22.108-5.208 6.097-11.603 9.13-19.194 9.13-7.408 0-13.716-3.033-18.922-9.13-5.211-6.087-7.814-13.459-7.814-22.108-.001-8.641 2.603-16.011 7.814-22.087zm-28.06 60.679c2.556-3.307 5.065-4.968 7.542-4.968 2.47 0 4.802 1.831 7.012 5.509 2.205 3.662 3.317 7.145 3.317 10.469 0 5.062-3.361 7.581-10.067 7.581-4.414 0-7.677-1.136-9.792-3.396-1.237-1.411-1.849-3.147-1.849-5.249.001-3.309 1.277-6.622 3.837-9.946zm-53.34-60.679c5.295-6.085 11.65-9.13 19.059-9.13 7.406 0 13.762 3.045 19.06 9.13 5.296 6.076 7.948 13.446 7.948 22.087 0 8.649-2.651 16.021-7.948 22.108-5.297 6.097-11.654 9.13-19.06 9.13-7.409 0-13.764-3.033-19.059-9.13-5.292-6.087-7.944-13.459-7.944-22.108 0-8.641 2.652-16.011 7.944-22.087z" style="" fill="#ffffff" data-original="#030104" class=""></path></g></svg>